<svg xmlns="http://www.w3.org/2000/svg" xmlns:xlink="http://www.w3.org/1999/xlink" width="500" zoomAndPan="magnify" viewBox="0 0 375 374.999991" height="500" preserveAspectRatio="xMidYMid meet" version="1.0"><defs><clipPath id="8b88cd31ca"><path d="M 80 45.652344 L 295 45.652344 L 295 329.152344 L 80 329.152344 Z M 80 45.652344 " clip-rule="nonzero"/></clipPath><clipPath id="91d7be841d"><path d="M 65.511719 184 L 309.261719 184 L 309.261719 307 L 65.511719 307 Z M 65.511719 184 " clip-rule="nonzero"/></clipPath><clipPath id="901cdf722d"><path d="M 67.203125 197.550781 L 307.796875 197.550781 L 307.796875 294.953125 L 67.203125 294.953125 Z M 67.203125 197.550781 " clip-rule="nonzero"/></clipPath><clipPath id="1f38966c95"><path d="M 0.203125 0.550781 L 240.796875 0.550781 L 240.796875 97.953125 L 0.203125 97.953125 Z M 0.203125 0.550781 " clip-rule="nonzero"/></clipPath><clipPath id="bb7b2c017f"><rect x="0" width="241" y="0" height="98"/></clipPath><clipPath id="f741bb668d"><path d="M 102.835938 194.121094 L 272.335938 194.121094 L 272.335938 298.371094 L 102.835938 298.371094 Z M 102.835938 194.121094 " clip-rule="nonzero"/></clipPath><clipPath id="a148bf165e"><path d="M 102.835938 187.5 L 272.164062 187.5 L 272.164062 205.144531 L 102.835938 205.144531 Z M 102.835938 187.5 " clip-rule="nonzero"/></clipPath><clipPath id="58cd7b8155"><path d="M 0.835938 0.5 L 170.164062 0.5 L 170.164062 18.144531 L 0.835938 18.144531 Z M 0.835938 0.5 " clip-rule="nonzero"/></clipPath><clipPath id="d78193fdaa"><rect x="0" width="171" y="0" height="19"/></clipPath><clipPath id="90e0acd131"><path d="M 102.835938 282.597656 L 272.164062 282.597656 L 272.164062 298.378906 L 102.835938 298.378906 Z M 102.835938 282.597656 " clip-rule="nonzero"/></clipPath><clipPath id="360ae4d961"><path d="M 0.835938 0.597656 L 170.164062 0.597656 L 170.164062 16.378906 L 0.835938 16.378906 Z M 0.835938 0.597656 " clip-rule="nonzero"/></clipPath><clipPath id="f71a039313"><rect x="0" width="171" y="0" height="17"/></clipPath><clipPath id="950b0ecf5b"><path d="M 263.34375 199.417969 L 280.988281 199.417969 L 280.988281 282.589844 L 263.34375 282.589844 Z M 263.34375 199.417969 " clip-rule="nonzero"/></clipPath><clipPath id="beb09a02f1"><path d="M 0.34375 0.417969 L 17.988281 0.417969 L 17.988281 83.589844 L 0.34375 83.589844 Z M 0.34375 0.417969 " clip-rule="nonzero"/></clipPath><clipPath id="33bc670583"><rect x="0" width="18" y="0" height="84"/></clipPath><clipPath id="a0135dcc22"><path d="M 94.015625 204.660156 L 111.660156 204.660156 L 111.660156 287.832031 L 94.015625 287.832031 Z M 94.015625 204.660156 " clip-rule="nonzero"/></clipPath><clipPath id="b44dbe6c76"><path d="M 0.015625 0.660156 L 17.660156 0.660156 L 17.660156 83.832031 L 0.015625 83.832031 Z M 0.015625 0.660156 " clip-rule="nonzero"/></clipPath><clipPath id="37f23f529b"><rect x="0" width="18" y="0" height="84"/></clipPath></defs><path fill="#f9f9f9" d="M 244.746094 47.585938 L 99.59375 47.585938 C 90 47.585938 82.226562 55.359375 82.226562 64.953125 L 82.226562 310.039062 C 82.226562 319.632812 90 327.40625 99.59375 327.40625 L 275.398438 327.40625 C 284.992188 327.40625 292.769531 319.632812 292.769531 310.039062 L 292.769531 95.605469 Z M 244.746094 47.585938 " fill-opacity="1" fill-rule="nonzero"/><path fill="#aaaaaa" d="M 216.953125 107.351562 L 118.566406 107.351562 C 114.144531 107.351562 110.5625 110.9375 110.5625 115.355469 C 110.5625 119.777344 114.144531 123.363281 118.566406 123.363281 L 216.953125 123.363281 C 221.371094 123.363281 224.957031 119.777344 224.957031 115.355469 C 224.957031 110.9375 221.371094 107.351562 216.953125 107.351562 Z M 216.953125 107.351562 " fill-opacity="1" fill-rule="nonzero"/><path fill="#aaaaaa" d="M 264.433594 142.84375 C 264.433594 147.265625 260.847656 150.847656 256.429688 150.847656 L 118.566406 150.847656 C 114.144531 150.847656 110.5625 147.265625 110.5625 142.84375 C 110.5625 138.421875 114.144531 134.839844 118.566406 134.839844 L 256.429688 134.839844 C 260.847656 134.839844 264.433594 138.421875 264.433594 142.84375 Z M 264.433594 142.84375 " fill-opacity="1" fill-rule="nonzero"/><path fill="#d1d1d1" d="M 262.117188 95.605469 L 292.769531 95.605469 L 244.746094 47.585938 L 244.746094 78.238281 C 244.746094 87.832031 252.523438 95.605469 262.117188 95.605469 Z M 262.117188 95.605469 " fill-opacity="1" fill-rule="nonzero"/><g clip-path="url(#8b88cd31ca)"><path fill="#aaaaaa" d="M 293.558594 93.675781 C 293.410156 93.515625 293.285156 93.386719 293.285156 93.386719 L 246.683594 46.78125 C 246.683594 46.78125 246.664062 46.765625 246.625 46.730469 C 246.371094 46.511719 245.214844 45.648438 242.8125 45.648438 L 99.59375 45.648438 C 88.949219 45.648438 80.289062 54.308594 80.289062 64.953125 L 80.289062 310.039062 C 80.289062 320.683594 88.949219 329.34375 99.59375 329.34375 L 275.398438 329.34375 C 286.042969 329.34375 294.703125 320.683594 294.703125 310.039062 L 294.703125 97.542969 C 294.703125 94.980469 293.601562 93.730469 293.558594 93.675781 Z M 246.683594 52.257812 L 288.097656 93.671875 L 262.117188 93.671875 C 253.605469 93.671875 246.683594 86.746094 246.683594 78.238281 Z M 290.835938 310.039062 C 290.835938 318.546875 283.910156 325.472656 275.398438 325.472656 L 99.59375 325.472656 C 91.085938 325.472656 84.160156 318.546875 84.160156 310.039062 L 84.160156 64.953125 C 84.160156 56.445312 91.085938 49.519531 99.59375 49.519531 L 242.8125 49.519531 L 242.8125 78.238281 C 242.8125 88.882812 251.472656 97.542969 262.117188 97.542969 L 290.835938 97.542969 Z M 290.835938 310.039062 " fill-opacity="1" fill-rule="nonzero"/></g><g clip-path="url(#91d7be841d)"><path fill="#000000" d="M 309.367188 289.515625 C 309.367188 298.769531 301.863281 306.269531 292.609375 306.269531 L 82.386719 306.269531 C 73.128906 306.269531 65.628906 298.769531 65.628906 289.515625 L 65.628906 201.160156 C 65.628906 191.90625 73.128906 184.402344 82.386719 184.402344 L 292.609375 184.402344 C 301.863281 184.402344 309.367188 191.90625 309.367188 201.160156 Z M 309.367188 289.515625 " fill-opacity="1" fill-rule="nonzero"/></g><path fill="#ffffff" d="M 268.144531 248.789062 C 268.144531 250.183594 267 251.328125 265.605469 251.328125 L 248.191406 251.328125 C 246.796875 251.328125 245.652344 252.472656 245.652344 253.867188 L 245.652344 273.515625 C 245.652344 274.914062 244.511719 276.054688 243.113281 276.054688 L 233.929688 276.054688 C 232.535156 276.054688 231.390625 274.914062 231.390625 273.515625 L 231.390625 217.15625 C 231.390625 215.761719 232.53125 214.621094 233.929688 214.621094 L 269.910156 214.621094 C 271.304688 214.621094 272.445312 215.761719 272.445312 217.15625 L 272.445312 223.050781 C 272.445312 224.449219 271.304688 225.589844 269.910156 225.589844 L 248.191406 225.589844 C 246.796875 225.589844 245.652344 226.734375 245.652344 228.128906 L 245.652344 237.820312 C 245.652344 239.214844 246.796875 240.359375 248.191406 240.359375 L 265.601562 240.359375 C 267 240.359375 268.144531 241.5 268.144531 242.898438 Z M 268.144531 248.789062 " fill-opacity="1" fill-rule="nonzero"/><path fill="#ffffff" d="M 206.925781 221.6875 C 202.058594 216.976562 196.011719 214.621094 188.785156 214.621094 L 168.832031 214.621094 C 167.4375 214.621094 166.292969 215.761719 166.292969 217.15625 L 166.292969 273.515625 C 166.292969 274.910156 167.4375 276.054688 168.832031 276.054688 L 188.785156 276.054688 C 196.011719 276.054688 202.0625 273.707031 206.925781 269.007812 C 211.792969 264.3125 214.226562 258.261719 214.226562 250.863281 L 214.226562 239.808594 C 214.226562 232.441406 211.792969 226.398438 206.925781 221.6875 Z M 200.800781 252.007812 C 200.800781 256.390625 199.703125 259.960938 197.515625 262.726562 C 195.324219 265.488281 192.535156 266.871094 189.15625 266.871094 L 183.117188 266.871094 C 181.71875 266.871094 180.574219 265.730469 180.574219 264.332031 L 180.574219 248.769531 C 180.574219 247.375 180.570312 246.230469 180.566406 246.230469 C 180.558594 246.230469 180.554688 245.089844 180.554688 243.691406 L 180.554688 228.128906 C 180.554688 226.730469 181.699219 225.589844 183.09375 225.589844 L 186.246094 225.589844 C 186.253906 225.589844 186.261719 225.589844 186.269531 225.589844 L 189.15625 225.589844 C 192.535156 225.589844 195.324219 226.972656 197.515625 229.734375 C 199.703125 232.5 200.800781 236.042969 200.800781 240.363281 Z M 200.800781 252.007812 " fill-opacity="1" fill-rule="nonzero"/><path fill="#ffffff" d="M 143.347656 220.1875 C 139.070312 216.476562 133.292969 214.621094 126.007812 214.621094 L 105.085938 214.621094 C 103.6875 214.621094 102.546875 215.761719 102.546875 217.15625 L 102.546875 273.515625 C 102.546875 274.910156 103.6875 276.054688 105.085938 276.054688 L 114.304688 276.054688 C 114.308594 276.054688 114.308594 276.054688 114.308594 276.054688 L 114.398438 276.054688 L 114.398438 276.046875 C 115.75 275.996094 116.84375 274.882812 116.84375 273.515625 L 116.820312 257.550781 C 116.820312 256.152344 117.960938 255.011719 119.359375 255.011719 L 126.007812 255 C 133.292969 255 139.074219 253.148438 143.347656 249.453125 C 147.625 245.75 149.761719 240.878906 149.761719 234.832031 C 149.761719 228.78125 147.625 223.902344 143.347656 220.1875 Z M 133.152344 241.457031 C 131.511719 243.167969 129.136719 244.023438 126.027344 244.023438 L 123.886719 244.023438 C 123.808594 244.023438 123.738281 244.023438 123.664062 244.027344 L 119.347656 244.027344 C 119.164062 244.027344 118.988281 244.007812 118.820312 243.972656 C 117.660156 243.738281 116.78125 242.707031 116.78125 241.484375 L 116.78125 228.027344 C 116.78125 226.632812 117.925781 225.492188 119.320312 225.492188 L 119.410156 225.492188 C 119.414062 225.492188 119.414062 225.492188 119.417969 225.492188 L 126.027344 225.492188 C 129.164062 225.492188 131.546875 226.367188 133.171875 228.121094 C 134.796875 229.871094 135.613281 232.121094 135.613281 234.863281 C 135.613281 237.550781 134.789062 239.746094 133.152344 241.457031 Z M 133.152344 241.457031 " fill-opacity="1" fill-rule="nonzero"/><g clip-path="url(#901cdf722d)"><g transform="matrix(1, 0, 0, 1, 67, 197)"><g clip-path="url(#bb7b2c017f)"><g clip-path="url(#1f38966c95)"><path fill="#000000" d="M 0.203125 0.550781 L 240.660156 0.550781 L 240.660156 97.953125 L 0.203125 97.953125 Z M 0.203125 0.550781 " fill-opacity="1" fill-rule="nonzero"/></g></g></g></g><g clip-path="url(#f741bb668d)"><path fill="#ffffff" d="M 259.9375 298.347656 L 115.058594 298.347656 C 114.253906 298.347656 113.460938 298.269531 112.671875 298.113281 C 111.886719 297.957031 111.121094 297.722656 110.378906 297.417969 C 109.640625 297.109375 108.933594 296.734375 108.265625 296.289062 C 107.601562 295.839844 106.984375 295.335938 106.414062 294.765625 C 105.847656 294.199219 105.339844 293.582031 104.894531 292.914062 C 104.449219 292.246094 104.074219 291.542969 103.765625 290.800781 C 103.457031 290.058594 103.226562 289.296875 103.070312 288.507812 C 102.914062 287.722656 102.835938 286.925781 102.835938 286.125 L 102.835938 206.371094 C 102.835938 205.566406 102.914062 204.773438 103.070312 203.984375 C 103.226562 203.199219 103.457031 202.433594 103.765625 201.691406 C 104.074219 200.949219 104.449219 200.246094 104.894531 199.578125 C 105.339844 198.910156 105.847656 198.292969 106.414062 197.726562 C 106.984375 197.160156 107.601562 196.652344 108.265625 196.207031 C 108.933594 195.761719 109.640625 195.382812 110.378906 195.078125 C 111.121094 194.769531 111.886719 194.539062 112.671875 194.382812 C 113.460938 194.226562 114.253906 194.148438 115.058594 194.148438 L 259.9375 194.148438 C 260.738281 194.148438 261.535156 194.226562 262.320312 194.382812 C 263.109375 194.539062 263.871094 194.769531 264.613281 195.078125 C 265.355469 195.382812 266.058594 195.761719 266.726562 196.207031 C 267.394531 196.652344 268.011719 197.160156 268.578125 197.726562 C 269.148438 198.292969 269.652344 198.910156 270.097656 199.578125 C 270.546875 200.246094 270.921875 200.949219 271.230469 201.691406 C 271.535156 202.433594 271.769531 203.199219 271.925781 203.984375 C 272.082031 204.773438 272.160156 205.566406 272.160156 206.371094 L 272.160156 286.136719 C 272.160156 286.9375 272.078125 287.730469 271.921875 288.519531 C 271.765625 289.304688 271.53125 290.070312 271.226562 290.808594 C 270.917969 291.550781 270.542969 292.253906 270.09375 292.921875 C 269.648438 293.585938 269.144531 294.203125 268.574219 294.769531 C 268.007812 295.339844 267.390625 295.84375 266.722656 296.289062 C 266.054688 296.734375 265.351562 297.109375 264.609375 297.417969 C 263.871094 297.726562 263.105469 297.957031 262.320312 298.113281 C 261.53125 298.269531 260.738281 298.347656 259.9375 298.347656 Z M 115.058594 202.285156 C 114.789062 202.285156 114.523438 202.3125 114.261719 202.363281 C 113.996094 202.414062 113.742188 202.492188 113.492188 202.59375 C 113.246094 202.695312 113.011719 202.824219 112.789062 202.972656 C 112.5625 203.121094 112.359375 203.289062 112.167969 203.480469 C 111.976562 203.667969 111.808594 203.875 111.660156 204.097656 C 111.511719 204.320312 111.386719 204.558594 111.28125 204.804688 C 111.179688 205.054688 111.101562 205.308594 111.050781 205.574219 C 111 205.835938 110.972656 206.101562 110.972656 206.371094 L 110.972656 286.136719 C 110.972656 286.402344 111 286.667969 111.054688 286.929688 C 111.105469 287.191406 111.183594 287.449219 111.285156 287.695312 C 111.390625 287.941406 111.515625 288.175781 111.664062 288.398438 C 111.8125 288.621094 111.984375 288.828125 112.171875 289.015625 C 112.363281 289.203125 112.570312 289.375 112.792969 289.523438 C 113.015625 289.671875 113.25 289.796875 113.496094 289.898438 C 113.746094 290 114 290.074219 114.261719 290.128906 C 114.523438 290.179688 114.789062 290.207031 115.058594 290.203125 L 259.9375 290.203125 C 260.203125 290.203125 260.46875 290.179688 260.730469 290.125 C 260.992188 290.074219 261.246094 289.996094 261.492188 289.894531 C 261.742188 289.792969 261.976562 289.667969 262.195312 289.519531 C 262.417969 289.371094 262.625 289.199219 262.8125 289.011719 C 263.003906 288.824219 263.171875 288.617188 263.320312 288.394531 C 263.46875 288.171875 263.59375 287.9375 263.695312 287.691406 C 263.800781 287.445312 263.878906 287.191406 263.929688 286.929688 C 263.980469 286.667969 264.007812 286.402344 264.007812 286.136719 L 264.007812 206.371094 C 264.011719 206.101562 263.984375 205.835938 263.933594 205.574219 C 263.878906 205.3125 263.804688 205.054688 263.703125 204.808594 C 263.597656 204.558594 263.472656 204.324219 263.324219 204.101562 C 263.175781 203.878906 263.007812 203.671875 262.820312 203.484375 C 262.628906 203.292969 262.425781 203.125 262.203125 202.976562 C 261.980469 202.828125 261.746094 202.699219 261.496094 202.597656 C 261.25 202.496094 260.996094 202.417969 260.730469 202.363281 C 260.46875 202.3125 260.203125 202.285156 259.9375 202.285156 Z M 115.058594 202.285156 " fill-opacity="1" fill-rule="nonzero"/></g><path fill="#ffffff" d="M 127.253906 273.921875 L 127.253906 218.558594 L 143.539062 218.558594 L 159.820312 238.910156 L 176.101562 218.566406 L 192.382812 218.566406 L 192.382812 273.929688 L 176.101562 273.929688 L 176.101562 242.175781 L 159.820312 262.527344 L 143.539062 242.175781 L 143.539062 273.921875 Z M 229.015625 273.921875 L 204.589844 247.0625 L 220.871094 247.0625 L 220.871094 218.566406 L 237.15625 218.566406 L 237.15625 247.0625 L 253.4375 247.0625 Z M 229.015625 273.921875 " fill-opacity="1" fill-rule="nonzero"/><g clip-path="url(#a148bf165e)"><g transform="matrix(1, 0, 0, 1, 102, 187)"><g clip-path="url(#d78193fdaa)"><g clip-path="url(#58cd7b8155)"><path fill="#000000" d="M 0.835938 0.5 L 170.179688 0.5 L 170.179688 18.144531 L 0.835938 18.144531 Z M 0.835938 0.5 " fill-opacity="1" fill-rule="nonzero"/></g></g></g></g><g clip-path="url(#90e0acd131)"><g transform="matrix(1, 0, 0, 1, 102, 282)"><g clip-path="url(#f71a039313)"><g clip-path="url(#360ae4d961)"><path fill="#000000" d="M 0.835938 0.597656 L 170.148438 0.597656 L 170.148438 16.378906 L 0.835938 16.378906 Z M 0.835938 0.597656 " fill-opacity="1" fill-rule="nonzero"/></g></g></g></g><g clip-path="url(#950b0ecf5b)"><g transform="matrix(1, 0, 0, 1, 263, 199)"><g clip-path="url(#33bc670583)"><g clip-path="url(#beb09a02f1)"><path fill="#000000" d="M 0.34375 83.589844 L 0.34375 0.398438 L 17.988281 0.398438 L 17.988281 83.589844 Z M 0.34375 83.589844 " fill-opacity="1" fill-rule="nonzero"/></g></g></g></g><g clip-path="url(#a0135dcc22)"><g transform="matrix(1, 0, 0, 1, 94, 204)"><g clip-path="url(#37f23f529b)"><g clip-path="url(#b44dbe6c76)"><path fill="#000000" d="M 0.015625 83.832031 L 0.015625 0.640625 L 17.660156 0.640625 L 17.660156 83.832031 Z M 0.015625 83.832031 " fill-opacity="1" fill-rule="nonzero"/></g></g></g></g></svg>