<svg xmlns="http://www.w3.org/2000/svg" xmlns:xlink="http://www.w3.org/1999/xlink" width="500" zoomAndPan="magnify" viewBox="0 0 375 374.999991" height="500" preserveAspectRatio="xMidYMid meet" version="1.0"><defs><g/><clipPath id="5c734bb122"><path d="M 80 45.652344 L 295 45.652344 L 295 329.152344 L 80 329.152344 Z M 80 45.652344 " clip-rule="nonzero"/></clipPath><clipPath id="c1aab2d44c"><path d="M 65.511719 184 L 309.261719 184 L 309.261719 307 L 65.511719 307 Z M 65.511719 184 " clip-rule="nonzero"/></clipPath><clipPath id="6c3fe7b628"><path d="M 67.203125 197.550781 L 307.796875 197.550781 L 307.796875 294.953125 L 67.203125 294.953125 Z M 67.203125 197.550781 " clip-rule="nonzero"/></clipPath><clipPath id="1a35c49498"><path d="M 0.203125 0.550781 L 240.796875 0.550781 L 240.796875 97.953125 L 0.203125 97.953125 Z M 0.203125 0.550781 " clip-rule="nonzero"/></clipPath><clipPath id="791b76d741"><rect x="0" width="241" y="0" height="98"/></clipPath></defs><path fill="#f9f9f9" d="M 244.746094 47.585938 L 99.59375 47.585938 C 90 47.585938 82.226562 55.359375 82.226562 64.953125 L 82.226562 310.039062 C 82.226562 319.632812 90 327.40625 99.59375 327.40625 L 275.398438 327.40625 C 284.992188 327.40625 292.769531 319.632812 292.769531 310.039062 L 292.769531 95.605469 Z M 244.746094 47.585938 " fill-opacity="1" fill-rule="nonzero"/><path fill="#aaaaaa" d="M 216.953125 107.351562 L 118.566406 107.351562 C 114.144531 107.351562 110.5625 110.9375 110.5625 115.355469 C 110.5625 119.777344 114.144531 123.363281 118.566406 123.363281 L 216.953125 123.363281 C 221.371094 123.363281 224.957031 119.777344 224.957031 115.355469 C 224.957031 110.9375 221.371094 107.351562 216.953125 107.351562 Z M 216.953125 107.351562 " fill-opacity="1" fill-rule="nonzero"/><path fill="#aaaaaa" d="M 264.433594 142.84375 C 264.433594 147.265625 260.847656 150.847656 256.429688 150.847656 L 118.566406 150.847656 C 114.144531 150.847656 110.5625 147.265625 110.5625 142.84375 C 110.5625 138.421875 114.144531 134.839844 118.566406 134.839844 L 256.429688 134.839844 C 260.847656 134.839844 264.433594 138.421875 264.433594 142.84375 Z M 264.433594 142.84375 " fill-opacity="1" fill-rule="nonzero"/><path fill="#d1d1d1" d="M 262.117188 95.605469 L 292.769531 95.605469 L 244.746094 47.585938 L 244.746094 78.238281 C 244.746094 87.832031 252.523438 95.605469 262.117188 95.605469 Z M 262.117188 95.605469 " fill-opacity="1" fill-rule="nonzero"/><g clip-path="url(#5c734bb122)"><path fill="#aaaaaa" d="M 293.558594 93.675781 C 293.410156 93.515625 293.285156 93.386719 293.285156 93.386719 L 246.683594 46.78125 C 246.683594 46.78125 246.664062 46.765625 246.625 46.730469 C 246.371094 46.511719 245.214844 45.648438 242.8125 45.648438 L 99.59375 45.648438 C 88.949219 45.648438 80.289062 54.308594 80.289062 64.953125 L 80.289062 310.039062 C 80.289062 320.683594 88.949219 329.34375 99.59375 329.34375 L 275.398438 329.34375 C 286.042969 329.34375 294.703125 320.683594 294.703125 310.039062 L 294.703125 97.542969 C 294.703125 94.980469 293.601562 93.730469 293.558594 93.675781 Z M 246.683594 52.257812 L 288.097656 93.671875 L 262.117188 93.671875 C 253.605469 93.671875 246.683594 86.746094 246.683594 78.238281 Z M 290.835938 310.039062 C 290.835938 318.546875 283.910156 325.472656 275.398438 325.472656 L 99.59375 325.472656 C 91.085938 325.472656 84.160156 318.546875 84.160156 310.039062 L 84.160156 64.953125 C 84.160156 56.445312 91.085938 49.519531 99.59375 49.519531 L 242.8125 49.519531 L 242.8125 78.238281 C 242.8125 88.882812 251.472656 97.542969 262.117188 97.542969 L 290.835938 97.542969 Z M 290.835938 310.039062 " fill-opacity="1" fill-rule="nonzero"/></g><g clip-path="url(#c1aab2d44c)"><path fill="#ff3131" d="M 309.367188 289.515625 C 309.367188 298.769531 301.863281 306.269531 292.609375 306.269531 L 82.386719 306.269531 C 73.128906 306.269531 65.628906 298.769531 65.628906 289.515625 L 65.628906 201.160156 C 65.628906 191.90625 73.128906 184.402344 82.386719 184.402344 L 292.609375 184.402344 C 301.863281 184.402344 309.367188 191.90625 309.367188 201.160156 Z M 309.367188 289.515625 " fill-opacity="1" fill-rule="nonzero"/></g><path fill="#ffffff" d="M 268.144531 248.789062 C 268.144531 250.183594 267 251.328125 265.605469 251.328125 L 248.191406 251.328125 C 246.796875 251.328125 245.652344 252.472656 245.652344 253.867188 L 245.652344 273.515625 C 245.652344 274.914062 244.511719 276.054688 243.113281 276.054688 L 233.929688 276.054688 C 232.535156 276.054688 231.390625 274.914062 231.390625 273.515625 L 231.390625 217.15625 C 231.390625 215.761719 232.53125 214.621094 233.929688 214.621094 L 269.910156 214.621094 C 271.304688 214.621094 272.445312 215.761719 272.445312 217.15625 L 272.445312 223.050781 C 272.445312 224.449219 271.304688 225.589844 269.910156 225.589844 L 248.191406 225.589844 C 246.796875 225.589844 245.652344 226.734375 245.652344 228.128906 L 245.652344 237.820312 C 245.652344 239.214844 246.796875 240.359375 248.191406 240.359375 L 265.601562 240.359375 C 267 240.359375 268.144531 241.5 268.144531 242.898438 Z M 268.144531 248.789062 " fill-opacity="1" fill-rule="nonzero"/><path fill="#ffffff" d="M 206.925781 221.6875 C 202.058594 216.976562 196.011719 214.621094 188.785156 214.621094 L 168.832031 214.621094 C 167.4375 214.621094 166.292969 215.761719 166.292969 217.15625 L 166.292969 273.515625 C 166.292969 274.910156 167.4375 276.054688 168.832031 276.054688 L 188.785156 276.054688 C 196.011719 276.054688 202.0625 273.707031 206.925781 269.007812 C 211.792969 264.3125 214.226562 258.261719 214.226562 250.863281 L 214.226562 239.808594 C 214.226562 232.441406 211.792969 226.398438 206.925781 221.6875 Z M 200.800781 252.007812 C 200.800781 256.390625 199.703125 259.960938 197.515625 262.726562 C 195.324219 265.488281 192.535156 266.871094 189.15625 266.871094 L 183.117188 266.871094 C 181.71875 266.871094 180.574219 265.730469 180.574219 264.332031 L 180.574219 248.769531 C 180.574219 247.375 180.570312 246.230469 180.566406 246.230469 C 180.558594 246.230469 180.554688 245.089844 180.554688 243.691406 L 180.554688 228.128906 C 180.554688 226.730469 181.699219 225.589844 183.09375 225.589844 L 186.246094 225.589844 C 186.253906 225.589844 186.261719 225.589844 186.269531 225.589844 L 189.15625 225.589844 C 192.535156 225.589844 195.324219 226.972656 197.515625 229.734375 C 199.703125 232.5 200.800781 236.042969 200.800781 240.363281 Z M 200.800781 252.007812 " fill-opacity="1" fill-rule="nonzero"/><path fill="#ffffff" d="M 143.347656 220.1875 C 139.070312 216.476562 133.292969 214.621094 126.007812 214.621094 L 105.085938 214.621094 C 103.6875 214.621094 102.546875 215.761719 102.546875 217.15625 L 102.546875 273.515625 C 102.546875 274.910156 103.6875 276.054688 105.085938 276.054688 L 114.304688 276.054688 C 114.308594 276.054688 114.308594 276.054688 114.308594 276.054688 L 114.398438 276.054688 L 114.398438 276.046875 C 115.75 275.996094 116.84375 274.882812 116.84375 273.515625 L 116.820312 257.550781 C 116.820312 256.152344 117.960938 255.011719 119.359375 255.011719 L 126.007812 255 C 133.292969 255 139.074219 253.148438 143.347656 249.453125 C 147.625 245.75 149.761719 240.878906 149.761719 234.832031 C 149.761719 228.78125 147.625 223.902344 143.347656 220.1875 Z M 133.152344 241.457031 C 131.511719 243.167969 129.136719 244.023438 126.027344 244.023438 L 123.886719 244.023438 C 123.808594 244.023438 123.738281 244.023438 123.664062 244.027344 L 119.347656 244.027344 C 119.164062 244.027344 118.988281 244.007812 118.820312 243.972656 C 117.660156 243.738281 116.78125 242.707031 116.78125 241.484375 L 116.78125 228.027344 C 116.78125 226.632812 117.925781 225.492188 119.320312 225.492188 L 119.410156 225.492188 C 119.414062 225.492188 119.414062 225.492188 119.417969 225.492188 L 126.027344 225.492188 C 129.164062 225.492188 131.546875 226.367188 133.171875 228.121094 C 134.796875 229.871094 135.613281 232.121094 135.613281 234.863281 C 135.613281 237.550781 134.789062 239.746094 133.152344 241.457031 Z M 133.152344 241.457031 " fill-opacity="1" fill-rule="nonzero"/><g clip-path="url(#6c3fe7b628)"><g transform="matrix(1, 0, 0, 1, 67, 197)"><g clip-path="url(#791b76d741)"><g clip-path="url(#1a35c49498)"><path fill="#ff3131" d="M 0.203125 0.550781 L 240.660156 0.550781 L 240.660156 97.953125 L 0.203125 97.953125 Z M 0.203125 0.550781 " fill-opacity="1" fill-rule="nonzero"/></g></g></g></g><g fill="#ffffff" fill-opacity="1"><g transform="translate(123.372859, 268.801182)"><g><path d="M 37.765625 -38.015625 C 38.890625 -35.722656 39.453125 -33.164062 39.453125 -30.34375 C 39.453125 -27.53125 38.890625 -24.988281 37.765625 -22.71875 C 36.640625 -20.445312 35.1875 -18.640625 33.40625 -17.296875 C 29.8125 -14.515625 26.085938 -13.125 22.234375 -13.125 L 14.109375 -13.125 L 14.109375 -5.78125 C 14.109375 -4.789062 14.070312 -4.046875 14 -3.546875 C 13.9375 -3.046875 13.734375 -2.46875 13.390625 -1.8125 C 12.785156 -0.644531 11.09375 -0.0625 8.3125 -0.0625 C 5.28125 -0.0625 3.503906 -0.863281 2.984375 -2.46875 C 2.722656 -3.207031 2.59375 -4.332031 2.59375 -5.84375 L 2.59375 -41.921875 C 2.59375 -42.921875 2.625 -43.671875 2.6875 -44.171875 C 2.757812 -44.671875 2.96875 -45.242188 3.3125 -45.890625 C 3.914062 -47.054688 5.609375 -47.640625 8.390625 -47.640625 L 22.296875 -47.640625 C 26.109375 -47.640625 29.8125 -46.253906 33.40625 -43.484375 C 35.1875 -42.140625 36.640625 -40.316406 37.765625 -38.015625 Z M 22.296875 -24.640625 C 23.597656 -24.640625 24.875 -25.113281 26.125 -26.0625 C 27.382812 -27.019531 28.015625 -28.453125 28.015625 -30.359375 C 28.015625 -32.265625 27.382812 -33.703125 26.125 -34.671875 C 24.875 -35.648438 23.578125 -36.140625 22.234375 -36.140625 L 14.109375 -36.140625 L 14.109375 -24.640625 Z M 22.296875 -24.640625 "/></g></g></g><g fill="#ffffff" fill-opacity="1"><g transform="translate(164.447956, 268.801182)"><g><path d="M 8.390625 -47.703125 L 20.40625 -47.640625 C 26.6875 -47.640625 32.210938 -45.375 36.984375 -40.84375 C 41.753906 -36.320312 44.140625 -30.753906 44.140625 -24.140625 C 44.140625 -17.535156 41.804688 -11.867188 37.140625 -7.140625 C 32.484375 -2.421875 26.84375 -0.0625 20.21875 -0.0625 L 8.3125 -0.0625 C 5.675781 -0.0625 4.03125 -0.601562 3.375 -1.6875 C 2.851562 -2.601562 2.59375 -3.988281 2.59375 -5.84375 L 2.59375 -41.984375 C 2.59375 -43.023438 2.625 -43.785156 2.6875 -44.265625 C 2.757812 -44.742188 2.96875 -45.304688 3.3125 -45.953125 C 3.914062 -47.117188 5.609375 -47.703125 8.390625 -47.703125 Z M 20.40625 -11.5625 C 23.53125 -11.5625 26.347656 -12.722656 28.859375 -15.046875 C 31.367188 -17.367188 32.625 -20.285156 32.625 -23.796875 C 32.625 -27.304688 31.398438 -30.238281 28.953125 -32.59375 C 26.503906 -34.957031 23.632812 -36.140625 20.34375 -36.140625 L 14.109375 -36.140625 L 14.109375 -11.5625 Z M 20.40625 -11.5625 "/></g></g></g><g fill="#ffffff" fill-opacity="1"><g transform="translate(210.202497, 268.801182)"><g><path d="M 34.125 -47.640625 C 35.125 -47.640625 35.867188 -47.609375 36.359375 -47.546875 C 36.859375 -47.484375 37.421875 -47.273438 38.046875 -46.921875 C 38.679688 -46.578125 39.128906 -45.992188 39.390625 -45.171875 C 39.648438 -44.347656 39.78125 -43.242188 39.78125 -41.859375 C 39.78125 -40.472656 39.648438 -39.367188 39.390625 -38.546875 C 39.128906 -37.722656 38.671875 -37.144531 38.015625 -36.8125 C 37.367188 -36.488281 36.796875 -36.296875 36.296875 -36.234375 C 35.804688 -36.171875 35.039062 -36.140625 34 -36.140625 L 14.109375 -36.140625 L 14.109375 -29.578125 L 26.90625 -29.578125 C 27.945312 -29.578125 28.71875 -29.539062 29.21875 -29.46875 C 29.71875 -29.40625 30.289062 -29.203125 30.9375 -28.859375 C 32.0625 -28.210938 32.625 -26.5 32.625 -23.71875 C 32.625 -20.6875 31.800781 -18.890625 30.15625 -18.328125 C 29.46875 -18.109375 28.363281 -18 26.84375 -18 L 14.109375 -18 L 14.109375 -5.71875 C 14.109375 -4.675781 14.070312 -3.914062 14 -3.4375 C 13.9375 -2.96875 13.734375 -2.40625 13.390625 -1.75 C 12.785156 -0.582031 11.09375 0 8.3125 0 C 5.28125 0 3.503906 -0.820312 2.984375 -2.46875 C 2.722656 -3.164062 2.59375 -4.269531 2.59375 -5.78125 L 2.59375 -41.921875 C 2.59375 -44.128906 3.003906 -45.632812 3.828125 -46.4375 C 4.648438 -47.238281 6.210938 -47.640625 8.515625 -47.640625 Z M 34.125 -47.640625 "/></g></g></g></svg>